HIERARCHY
ROOT Hips
{
	OFFSET 0.00000 0.00000 0.00000
	CHANNELS 6 Xposition Yposition Zposition Zrotation Yrotation Xrotation 
	JOINT LHipJoint
	{
		OFFSET 0 0 0
		CHANNELS 3 Zrotation Yrotation Xrotation
		JOINT LeftUpLeg
		{
			OFFSET 1.58161 -1.81893 0.78828
			CHANNELS 3 Zrotation Yrotation Xrotation
			JOINT LeftLeg
			{
				OFFSET 2.53374 -6.96141 0.00000
				CHANNELS 3 Zrotation Yrotation Xrotation
				JOINT LeftFoot
				{
					OFFSET 2.63509 -7.23986 0.00000
					CHANNELS 3 Zrotation Yrotation Xrotation
					JOINT LeftToeBase
					{
						OFFSET 0.14115 -0.38781 2.05350
						CHANNELS 3 Zrotation Yrotation Xrotation
						End Site
						{
							OFFSET 0.00000 -0.00000 1.05543
						}
					}
				}
			}
		}
	}
	JOINT RHipJoint
	{
		OFFSET 0 0 0
		CHANNELS 3 Zrotation Yrotation Xrotation
		JOINT RightUpLeg
		{
			OFFSET -1.11138 -1.81893 0.78828
			CHANNELS 3 Zrotation Yrotation Xrotation
			JOINT RightLeg
			{
				OFFSET -2.58392 -7.09926 0.00000
				CHANNELS 3 Zrotation Yrotation Xrotation
				JOINT RightFoot
				{
					OFFSET -2.66423 -7.31992 0.00000
					CHANNELS 3 Zrotation Yrotation Xrotation
					JOINT RightToeBase
					{
						OFFSET -0.18831 -0.51739 2.12114
						CHANNELS 3 Zrotation Yrotation Xrotation
						End Site
						{
							OFFSET -0.00000 -0.00000 1.09845
						}
					}
				}
			}
		}
	}
	JOINT LowerBack
	{
		OFFSET 0 0 0
		CHANNELS 3 Zrotation Yrotation Xrotation
		JOINT Spine
		{
			OFFSET -0.01511 1.97958 -0.08829
			CHANNELS 3 Zrotation Yrotation Xrotation
			JOINT Spine1
			{
				OFFSET 0.08344 1.97334 -0.04330
				CHANNELS 3 Zrotation Yrotation Xrotation
				JOINT Neck
				{
					OFFSET 0 0 0
					CHANNELS 3 Zrotation Yrotation Xrotation
					JOINT Neck1
					{
						OFFSET 0.00559 1.76246 0.31246
						CHANNELS 3 Zrotation Yrotation Xrotation
						JOINT Head
						{
							OFFSET -0.07011 1.80354 -0.30524
							CHANNELS 3 Zrotation Yrotation Xrotation
							End Site
							{
								OFFSET -0.02385 1.83547 -0.13906
							}
						}
					}
				}
				JOINT LeftShoulder
				{
					OFFSET 0 0 0
					CHANNELS 3 Zrotation Yrotation Xrotation
					JOINT LeftArm
					{
						OFFSET 3.20667 1.30156 -0.60240
						CHANNELS 3 Zrotation Yrotation Xrotation
						JOINT LeftForeArm
						{
							OFFSET 4.95663 -0.00000 0.00000
							CHANNELS 3 Zrotation Yrotation Xrotation
							JOINT LeftHand
							{
								OFFSET 3.38177 -0.00000 0.00000
								CHANNELS 3 Zrotation Yrotation Xrotation
								JOINT LeftFingerBase
								{
									OFFSET 0 0 0
									CHANNELS 3 Zrotation Yrotation Xrotation
									JOINT LeftHandIndex1
									{
										OFFSET 0.66291 -0.00000 0.00000
										CHANNELS 3 Zrotation Yrotation Xrotation
										End Site
										{
											OFFSET 0.53445 -0.00000 0.00000
										}
									}
								}
								JOINT LThumb
								{
									OFFSET 0 0 0
									CHANNELS 3 Zrotation Yrotation Xrotation
									End Site
									{
										OFFSET 0.54261 -0.00000 0.54261
									}
								}
							}
						}
					}
				}
				JOINT RightShoulder
				{
					OFFSET 0 0 0
					CHANNELS 3 Zrotation Yrotation Xrotation
					JOINT RightArm
					{
						OFFSET -3.06877 1.34672 -0.60964
						CHANNELS 3 Zrotation Yrotation Xrotation
						JOINT RightForeArm
						{
							OFFSET -5.08365 -0.00000 0.00000
							CHANNELS 3 Zrotation Yrotation Xrotation
							JOINT RightHand
							{
								OFFSET -3.35984 -0.00000 0.00000
								CHANNELS 3 Zrotation Yrotation Xrotation
								JOINT RightFingerBase
								{
									OFFSET 0 0 0
									CHANNELS 3 Zrotation Yrotation Xrotation
									JOINT RightHandIndex1
									{
										OFFSET -0.82076 -0.00000 0.00000
										CHANNELS 3 Zrotation Yrotation Xrotation
										End Site
										{
											OFFSET -0.66172 -0.00000 0.00000
										}
									}
								}
								JOINT RThumb
								{
									OFFSET 0 0 0
									CHANNELS 3 Zrotation Yrotation Xrotation
									End Site
									{
										OFFSET -0.67182 -0.00000 0.67182
									}
								}
							}
						}
					}
				}
			}
		}
	}
}
MOTION
Frames: 7
Frame Time: .0083333
-1.9107 17.4995 -2.0781 15.7829 26.0641 69.9130 0.0000 0.0000 0.0000 -1.8285 -12.7958 -35.3378 3.3040 11.1716 32.8610 0.4038 -2.3301 13.0834 0.5525 -4.7615 -13.2295 0.0000 0.0000 0.0000 -4.9298 12.7322 -88.1063 -3.0038 -10.7011 31.2784 0.4806 -12.2714 -6.1856 -1.1623 -6.8441 19.2542 8.8370 4.0387 36.7519 13.7780 8.7065 17.3244 7.1868 4.0131 -0.1726 -7.3715 -11.5291 -16.3106 2.1007 -14.5721 -6.8738 0.9526 -7.3429 1.1681 0.0000 -0.0000 0.0000 -81.2221 -20.3838 87.6893 35.9449 -45.4752 -15.4832 -0.0000 -0.0000 23.3228 55.4813 16.8822 22.8917 -7.1250 0.0000 -0.0000 31.0641 55.3009 8.4506 0.0000 -0.0000 0.0000 -37.6199 49.8561 -45.7957 -10.4933 17.5074 -1.6202 0.0000 0.0000 12.0801 -32.3297 11.8212 -7.3875 7.1250 -0.0000 -0.0000 -3.5507 -16.0857 -2.4326
-1.9029 17.5148 -2.0820 15.8897 26.0208 69.6864 0.0000 0.0000 0.0000 -2.1783 -12.5207 -34.9302 3.2258 11.0520 32.4554 0.3932 -2.5888 13.0787 0.7014 -5.3531 -14.9185 0.0000 0.0000 0.0000 -5.0378 12.6900 -87.6266 -2.9451 -10.6056 30.9610 0.5073 -12.5714 -6.0672 -1.1786 -6.8904 19.3909 8.8437 3.9413 36.6881 13.6878 8.5877 17.2866 7.1285 3.9668 -0.1649 -7.3974 -11.4927 -16.2116 2.2172 -14.5218 -6.9103 1.0031 -7.3131 1.1507 0.0000 0.0000 0.0000 -81.2463 -20.2723 87.4473 35.7645 -45.3504 -15.3547 -0.0000 -0.0000 23.0583 55.1522 16.4162 22.0924 -7.1250 0.0000 -0.0000 30.2923 54.5545 7.6376 0.0000 0.0000 0.0000 -36.4817 50.1302 -44.0549 -10.5020 17.5210 -1.6228 0.0000 0.0000 9.7094 -30.8540 10.5889 -6.2648 7.1250 -0.0000 -0.0000 -2.6572 -17.7026 -1.7252
-1.8968 17.5343 -2.0864 16.0159 25.9490 69.4289 0.0000 0.0000 0.0000 -2.4636 -12.4247 -34.4796 3.1590 10.9482 32.1053 0.3962 -2.4877 13.0625 0.7345 -5.4754 -15.2697 0.0000 0.0000 0.0000 -5.2016 12.6601 -87.0595 -2.8847 -10.5060 30.6312 0.5263 -12.7840 -6.0120 -1.1922 -6.9284 19.5036 8.8025 3.8520 36.6165 13.5925 8.4617 17.2647 7.0920 3.9163 -0.1440 -7.4458 -11.4700 -16.0599 2.3416 -14.4947 -7.0766 1.0652 -7.2941 1.0836 -0.0000 0.0000 0.0000 -81.2234 -20.1471 87.2088 35.6612 -45.2785 -15.2813 -0.0000 -0.0000 22.6370 54.9306 15.8361 21.2421 -7.1250 0.0000 -0.0000 29.6181 53.6833 6.7865 -0.0000 0.0000 0.0000 -35.3320 50.4750 -42.7552 -10.4450 17.4326 -1.6057 0.0000 0.0000 7.8069 -29.3878 9.5535 -5.3400 7.1250 -0.0000 -0.0000 -1.7166 -19.0500 -1.0628
-1.8891 17.5575 -2.0909 16.1169 25.9610 69.1340 0.0000 0.0000 0.0000 -2.6089 -12.4123 -34.0516 3.1038 10.8611 31.8130 0.4051 -2.2303 13.0458 0.6752 -5.2543 -14.6353 0.0000 0.0000 0.0000 -5.3568 12.6422 -86.4212 -2.8224 -10.4018 30.2878 0.5474 -13.0239 -6.0268 -1.3303 -7.3039 20.6190 8.8574 3.7466 36.5423 13.5243 8.3490 17.2267 7.0315 3.8747 -0.1298 -7.4388 -11.4723 -15.9101 2.3827 -14.5116 -7.1860 1.0878 -7.3008 1.0260 0.0000 0.0000 0.0000 -81.2049 -20.0319 87.0724 35.6642 -45.2807 -15.2834 -0.0000 -0.0000 22.1073 54.7100 15.3807 20.5430 -7.1250 0.0000 -0.0000 29.0457 52.9816 6.1154 0.0000 0.0000 0.0000 -34.0835 50.7506 -41.3388 -10.3893 17.3462 -1.5890 0.0000 0.0000 6.1335 -27.8771 8.6667 -4.5572 7.1250 -0.0000 -0.0000 -0.7033 -20.1964 -0.4173
-1.8795 17.5801 -2.0967 16.2072 26.0070 68.8468 0.0000 0.0000 0.0000 -2.7246 -12.4443 -33.6818 3.0559 10.7849 31.5579 0.4009 -2.2447 12.9934 0.6967 -5.3356 -14.8684 0.0000 0.0000 0.0000 -5.4298 12.5930 -85.8070 -2.7601 -10.2963 29.9416 0.5566 -13.1198 -5.9454 -1.2686 -7.1390 20.1279 8.9357 3.6489 36.4423 13.4739 8.2532 17.1647 6.9717 3.8411 -0.1347 -7.4452 -11.4839 -15.8387 2.4721 -14.5240 -7.0711 1.1148 -7.3051 1.0629 -0.0000 -0.0000 0.0000 -81.2410 -19.9557 87.0184 35.6146 -45.2460 -15.2482 -0.0000 -0.0000 21.5327 54.4603 15.0553 19.9825 -7.1250 0.0000 -0.0000 28.5307 52.4507 5.6032 -0.0000 -0.0000 0.0000 -32.6799 50.8960 -39.2283 -10.4135 17.3838 -1.5963 0.0000 0.0000 4.0019 -26.6734 7.7436 -3.8724 7.1250 -0.0000 -0.0000 0.1128 -21.3272 0.0640
-1.8699 17.5989 -2.1043 16.3397 26.0261 68.6117 0.0000 0.0000 0.0000 -2.8616 -12.5456 -33.3675 3.0125 10.7153 31.3256 0.3984 -2.1273 12.8915 0.7021 -5.3560 -14.9267 0.0000 0.0000 0.0000 -5.4269 12.5001 -85.2676 -2.6996 -10.1921 29.6010 0.5583 -13.1367 -5.9092 -1.1139 -6.7049 18.8441 8.9528 3.5729 36.3176 13.4315 8.1656 17.0855 6.9470 3.8083 -0.1633 -7.5086 -11.4964 -15.7933 2.5823 -14.5231 -6.9011 1.1544 -7.3009 1.1287 -0.0000 -0.0000 0.0000 -81.3268 -19.8574 87.0477 35.5088 -45.1721 -15.1731 -0.0000 -0.0000 20.8251 54.2573 14.6900 19.4100 -7.1250 0.0000 -0.0000 28.0632 51.8781 5.0854 -0.0000 -0.0000 0.0000 -31.0681 51.1936 -37.7087 -10.3775 17.3279 -1.5855 0.0000 0.0000 2.5515 -26.0832 7.0412 -3.4341 7.1250 -0.0000 -0.0000 0.5111 -22.1497 0.2807
-1.8613 17.6197 -2.1121 16.4896 26.0300 68.3697 0.0000 0.0000 0.0000 -3.0381 -12.5221 -33.1245 2.9737 10.6524 31.1162 0.4189 -1.6088 12.9177 0.5742 -4.8525 -13.4883 0.0000 0.0000 0.0000 -5.4410 12.4029 -84.7169 -2.6406 -10.0891 29.2659 0.5765 -13.3973 -6.6315 -1.6523 -8.1008 23.0207 8.9229 3.5205 36.1782 13.4013 8.0905 17.0150 6.9553 3.7795 -0.1882 -7.5272 -11.4900 -15.7316 2.6151 -14.5103 -6.8542 1.1701 -7.2922 1.1388 -0.0000 -0.0000 0.0000 -81.4117 -19.6780 87.1069 35.4462 -45.1281 -15.1287 -0.0000 -0.0000 19.9763 54.1811 14.1792 18.7474 -7.1250 0.0000 -0.0000 27.6798 51.1375 4.4775 -0.0000 -0.0000 0.0000 -29.3709 51.6006 -36.8474 -10.2774 17.1724 -1.5559 0.0000 0.0000 1.9429 -25.6809 6.3300 -3.0348 7.1250 -0.0000 -0.0000 0.7803 -22.9627 0.4141
